<svg version="1.1" xmlns="http://www.w3.org/2000/svg" xmlns:xlink="http://www.w3.org/1999/xlink" x="0px" y="0px"
	 width="100%" viewBox="0 0 199 211" enable-background="new 0 0 199 211" xml:space="preserve">
<path fill="#3E7EBA" opacity="1.000000" stroke="none" 
	d="
M188.075974,119.681099 
	C188.103836,134.125946 189.433655,148.715225 187.851028,162.981400 
	C185.540802,183.806458 168.359818,198.114471 147.314957,198.194687 
	C107.031242,198.348221 66.745804,197.996643 26.461258,198.036758 
	C20.285246,198.042923 22.364098,193.905792 22.377373,190.127075 
	C23.490303,185.628159 24.256262,181.816193 25.270960,177.762726 
	C28.295797,172.849213 30.521439,167.718109 33.958286,163.597153 
	C42.049850,153.894928 53.255123,150.210510 65.454552,150.081482 
	C93.546783,149.784302 121.646988,150.140106 149.735779,149.704102 
	C155.342987,149.617081 161.292282,148.010727 166.423615,145.662338 
	C177.578186,140.557327 183.621857,130.656494 188.075974,119.681099 
z"/>
<path fill="#86CA37" opacity="1.000000" stroke="none" 
	d="
M188.114975,119.247734 
	C183.621857,130.656494 177.578186,140.557327 166.423615,145.662338 
	C161.292282,148.010727 155.342987,149.617081 149.735779,149.704102 
	C121.646988,150.140106 93.546783,149.784302 65.454552,150.081482 
	C53.255123,150.210510 42.049850,153.894928 33.958286,163.597153 
	C30.521439,167.718109 28.295797,172.849213 24.924068,177.764038 
	C23.635626,177.986465 22.942818,177.966064 22.250008,177.945663 
	C22.213652,177.219757 22.177296,176.493866 22.563034,175.284164 
	C23.304718,174.256210 23.863258,173.730469 23.906797,173.165054 
	C24.325222,167.731369 24.419706,162.261536 25.091299,156.862289 
	C25.592491,152.832977 25.740883,148.146744 27.904696,145.052612 
	C34.311436,135.891342 43.863544,130.932220 54.874043,130.150238 
	C68.241966,129.200821 81.689743,128.980774 95.097336,129.096649 
	C108.360008,129.211258 115.945244,121.916626 117.457184,108.175201 
	C118.557739,108.191437 119.293724,108.255302 120.364128,108.549500 
	C134.072098,108.860588 147.445618,108.956146 160.819260,108.981880 
	C161.547714,108.983284 162.277283,108.401558 163.079269,107.998611 
	C163.152206,107.905937 163.365021,107.804176 163.872406,107.830048 
	C170.581284,107.862076 176.782761,107.868233 183.378021,107.938820 
	C185.095825,107.942009 186.419876,107.880768 187.743912,107.819519 
	C187.880600,111.484474 188.017288,115.149422 188.114975,119.247734 
z"/>
<path fill="#7C7C7A" opacity="1.000000" stroke="none" 
	d="
M69.861160,96.169968 
	C69.357430,95.590073 68.853706,95.010178 68.349976,94.430283 
	C62.436302,100.594688 54.832714,97.038925 48.006329,97.936523 
	C46.895061,98.082649 45.735817,97.863899 44.165123,97.794693 
	C44.165123,84.162369 43.391125,70.695892 44.408028,57.366039 
	C45.233665,46.543362 55.562557,38.649113 67.228775,38.202026 
	C76.862503,37.832821 86.512833,37.896614 96.583679,37.878662 
	C97.011551,37.988781 97.005783,37.918659 97.002777,38.393349 
	C96.943390,53.929554 96.887009,68.991066 96.372711,84.043243 
	C90.966911,84.031998 86.019020,84.028824 81.071129,84.028442 
	C70.206444,84.027603 70.209099,84.028206 70.071587,94.706375 
	C70.065292,95.195061 69.934151,95.682137 69.861160,96.169968 
z"/>
<path fill="#EA4140" opacity="1.000000" stroke="none" 
	d="
M182.984238,107.874397 
	C176.782761,107.868233 170.581284,107.862076 163.935638,107.380150 
	C163.350342,89.274979 163.495209,71.636780 162.954315,54.019642 
	C162.658325,44.378696 157.082031,38.812832 148.433670,38.139683 
	C145.633163,37.921707 142.792480,38.219639 139.505951,38.231911 
	C125.029747,38.094379 111.017769,38.006519 97.005783,37.918659 
	C97.005783,37.918659 97.011551,37.988781 97.046661,37.991016 
	C97.081772,32.867722 97.081772,27.742195 97.081772,22.092724 
	C114.918091,22.092724 132.493530,22.092724 150.808838,22.384792 
	C155.738159,23.763084 159.927628,24.849308 164.117081,25.935534 
	C164.117081,25.935534 164.570740,26.011271 164.879242,26.323359 
	C165.400757,26.885046 165.671234,27.003389 165.999161,26.990477 
	C166.172775,27.037672 166.346390,27.084867 166.838623,27.444401 
	C167.340088,27.964787 167.569901,28.063715 167.846695,28.053524 
	C167.846695,28.053524 167.933456,28.015461 168.011108,28.395340 
	C169.056412,29.181568 170.024048,29.587917 170.991684,29.994267 
	C170.991684,29.994265 171.001831,29.997650 171.025162,30.347370 
	C172.586044,31.845570 174.123596,32.994049 175.661148,34.142529 
	C175.661148,34.142529 175.856247,34.193855 175.950592,34.451069 
	C176.183594,34.909843 176.372406,35.036808 176.611404,35.089176 
	C176.611404,35.089176 176.804855,35.143536 176.853424,35.570984 
	C177.608170,36.662991 178.314331,37.327549 179.020508,37.992111 
	C179.292709,38.205341 179.564926,38.418571 179.879150,39.232372 
	C180.587402,40.568142 181.253632,41.303337 181.919861,42.038536 
	C181.919861,42.038540 181.994949,42.039356 182.021088,42.275505 
	C182.182953,42.777363 182.394562,42.950195 182.682037,43.030159 
	C182.682037,43.030159 182.974304,43.375526 182.997864,44.054626 
	C183.346558,48.177456 183.870407,51.615852 183.963074,55.065834 
	C184.408356,71.643906 184.775513,88.224564 185.013519,104.806557 
	C185.028061,105.819260 183.691925,106.851341 182.984238,107.874397 
z"/>
<path fill="#9DD459" opacity="1.000000" stroke="none" 
	d="
M117.092598,108.222816 
	C115.945244,121.916626 108.360008,129.211258 95.097336,129.096649 
	C81.689743,128.980774 68.241966,129.200821 54.874043,130.150238 
	C43.863544,130.932220 34.311436,135.891342 27.904696,145.052612 
	C25.740883,148.146744 25.592491,152.832977 25.091299,156.862289 
	C24.419706,162.261536 24.325222,167.731369 23.906797,173.165054 
	C23.863258,173.730469 23.304718,174.256210 22.617287,174.923798 
	C22.489058,163.626999 21.660624,152.059036 23.214916,140.820618 
	C25.635571,123.317917 41.418270,109.600960 58.928299,108.005539 
	C64.046059,107.539230 69.188484,107.343697 75.199249,106.972298 
	C83.077225,106.992302 90.075562,107.064064 97.488846,107.184479 
	C104.271057,107.430099 110.638313,107.627090 117.027725,107.923676 
	C117.049873,108.023277 117.092598,108.222816 117.092598,108.222816 
z"/>
<path fill="#515150" opacity="1.000000" stroke="none" 
	d="
M97.073898,107.135834 
	C90.075562,107.064064 83.077225,106.992302 75.673012,106.913513 
	C72.057007,104.353378 69.465996,101.461464 69.841614,96.563354 
	C69.934151,95.682137 70.065292,95.195061 70.071587,94.706375 
	C70.209099,84.028206 70.206444,84.027603 81.071129,84.028442 
	C86.019020,84.028824 90.966911,84.031998 96.443069,84.503754 
	C97.005524,92.361015 97.039711,99.748421 97.073898,107.135834 
z"/>
<path fill="#E76861" opacity="1.000000" stroke="none" 
	d="
M183.378021,107.938828 
	C183.691925,106.851341 185.028061,105.819260 185.013519,104.806557 
	C184.775513,88.224564 184.408356,71.643906 183.963074,55.065834 
	C183.870407,51.615852 183.346558,48.177456 183.063385,44.271149 
	C187.888992,50.287472 188.763657,57.886635 188.748718,65.518837 
	C188.721664,79.327156 188.241943,93.134575 187.847565,107.380951 
	C186.419876,107.880768 185.095825,107.942009 183.378021,107.938828 
z"/>
<path fill="#9DD459" opacity="1.000000" stroke="none" 
	d="
M22.156590,178.401550 
	C22.942818,177.966064 23.635626,177.986465 24.675327,178.005554 
	C24.256262,181.816193 23.490303,185.628159 22.446404,189.687119 
	C22.133364,186.241898 22.098267,182.549652 22.156590,178.401550 
z"/>
<path fill="#FDFDFC" opacity="1.000000" stroke="none" 
	d="
M139.505951,38.231911 
	C139.970184,53.333130 139.970184,68.384682 139.970184,84.151497 
	C133.839905,84.151497 128.243652,84.207497 122.649155,84.132729 
	C118.600266,84.078621 116.646362,85.486885 116.946503,89.990311 
	C117.320869,95.607407 117.015038,101.269844 117.004227,107.368393 
	C110.638313,107.627090 104.271057,107.430099 97.488846,107.184471 
	C97.039711,99.748421 97.005524,92.361015 96.900986,84.513092 
	C96.887009,68.991066 96.943390,53.929554 97.002777,38.393349 
	C111.017769,38.006519 125.029747,38.094379 139.505951,38.231911 
M119.763069,53.351734 
	C116.211205,52.375145 112.644882,52.799393 111.209785,56.308392 
	C110.216339,58.737469 110.054932,62.436378 111.274712,64.561920 
	C112.348976,66.433876 116.093292,68.107430 118.223579,67.683426 
	C120.594788,67.211472 123.329262,64.649811 124.369896,62.313736 
	C125.981125,58.696743 123.906219,55.626724 119.763069,53.351734 
z"/>
<path fill="#585756" opacity="1.000000" stroke="none" 
	d="
M120.111191,53.532108 
	C123.906219,55.626724 125.981125,58.696743 124.369896,62.313736 
	C123.329262,64.649811 120.594788,67.211472 118.223579,67.683426 
	C116.093292,68.107430 112.348976,66.433876 111.274712,64.561920 
	C110.054932,62.436378 110.216339,58.737469 111.209785,56.308392 
	C112.644882,52.799393 116.211205,52.375145 120.111191,53.532108 
z"/>
<path fill="#7BD0E6" opacity="1.000000" stroke="none" 
	d="
M139.970184,38.281578 
	C142.792480,38.219639 145.633163,37.921707 148.433670,38.139683 
	C157.082031,38.812832 162.658325,44.378696 162.954315,54.019642 
	C163.495209,71.636780 163.350342,89.274979 163.428253,107.354279 
	C163.365021,107.804176 163.152206,107.905937 162.610565,108.013519 
	C148.055847,108.187119 134.042770,108.253136 120.029701,108.319160 
	C119.293724,108.255302 118.557739,108.191437 117.457184,108.175201 
	C115.945244,121.916626 108.360008,129.211258 95.097336,129.096649 
	C81.689743,128.980774 68.241966,129.200821 54.874043,130.150238 
	C43.863544,130.932220 34.311436,135.891342 27.904696,145.052612 
	C25.740883,148.146744 25.592491,152.832977 25.091299,156.862289 
	C24.419706,162.261536 24.325222,167.731369 23.906797,173.165054 
	C23.863258,173.730469 23.304718,174.256210 22.617287,174.923798 
	C22.489058,163.626999 21.660624,152.059036 23.214916,140.820618 
	C25.635571,123.317917 41.418270,109.600960 58.928299,108.005539 
	C64.046059,107.539230 69.188484,107.343697 75.199249,106.972298 
	C83.077225,106.992302 90.075562,107.064064 97.488846,107.184479 
	C104.271057,107.430099 110.638313,107.627090 117.027725,107.923676 
	C117.049873,108.023277 117.092598,108.222816 117.092598,108.222816 
z"/>
</svg>